<?xml version="1.0" encoding="UTF-8"?>
<svg width="752pt" height="752pt" version="1.1" viewBox="0 0 752 752" xmlns="http://www.w3.org/2000/svg">
 <g>
  <path d="m458.41 402.52c2.8398-9.4727 24.152-16.102 24.152-26.52 0-10.418-21.312-17.523-24.152-26.52-3.3164-9.9453 9.9453-27.941 3.7891-35.992-6.1562-8.0508-26.992-1.4219-35.52-7.5781-8.0508-5.6875-8.0508-27.945-17.996-31.258-9.4727-2.8398-22.258 14.68-32.676 14.68-10.418 0-23.68-17.996-32.676-14.68-9.9492 3.3125-9.9492 25.57-18 31.254-8.0508 6.1562-29.363-0.94531-35.52 7.5781-5.6836 8.0508 7.1055 26.047 3.7891 35.992-2.8398 9.4727-24.152 16.102-24.152 26.52s21.312 17.523 24.152 26.52c3.3164 9.9453-9.9453 27.941-3.7891 35.992s26.992 1.4219 35.52 7.5781c8.0508 5.6836 8.0508 27.941 17.996 31.258 9.4727 2.8398 22.73-14.68 32.676-14.68 10.418 0 23.68 17.996 32.676 14.68 9.9453-3.3164 9.9453-25.574 17.996-31.258 8.0508-6.1562 29.363 0.94531 35.52-7.5781 5.6836-8.0469-7.1016-26.043-3.7852-35.988zm-42.625-38.836-41.203 41.203c-1.8945 2.3672-4.7344 3.3164-7.5781 3.3164-2.8398 0-5.6836-0.94531-7.5781-3.3164l-24.625-24.625c-4.2617-4.2617-4.2617-11.367 0-15.629s11.367-4.2617 15.629 0l16.574 16.574 33.625-33.625c4.2617-4.2617 11.367-4.2617 15.629 0 3.7891 5.2109 3.7891 11.84-0.47266 16.102z"/>
  <path d="m367.95 209.77v44.043c0 4.2617 3.7891 8.0508 8.0508 8.0508s8.0508-3.7891 8.0508-8.0508v-44.043c12.312-3.3164 21.785-15.156 21.785-28.414 0-16.574-13.262-29.836-29.836-29.836s-29.836 13.262-29.836 29.836c0 13.262 9 24.625 21.785 28.414z"/>
  <path d="m271.81 246.24 26.047 35.992c1.4219 2.3672 4.2617 3.3164 6.6289 3.3164 1.4219 0 3.3164-0.47266 4.7344-1.4219 3.7891-2.8398 4.2617-7.5781 1.8945-11.367l-26.047-35.992c8.0508-10.418 8.9961-25.102 0.94531-35.992-9.4727-13.262-28.414-16.102-41.676-6.6289-13.262 9.4727-16.102 28.414-6.6289 41.676 7.582 10.895 21.789 14.684 34.102 10.418z"/>
  <path d="m181.36 344.27c12.785 4.2617 26.52-0.94531 34.098-11.84l42.148 13.734c0.94531 0.47266 1.8945 0.47266 2.3672 0.47266 3.3164 0 6.6289-2.3672 7.5781-5.6836 1.4219-4.2617-0.94531-8.9961-5.2109-10.418l-42.148-13.734c0.47266-12.785-7.5781-25.574-20.363-29.363-15.629-5.2109-32.676 3.3164-37.414 19.418-5.6797 15.152 3.3164 32.203 18.945 37.414z"/>
  <path d="m384.05 542.23v-44.043c0-4.2617-3.7891-8.0508-8.0508-8.0508s-8.0508 3.7891-8.0508 8.0508v44.043c-12.312 3.3164-21.785 15.156-21.785 28.414 0 16.574 13.262 29.836 29.836 29.836s29.836-13.262 29.836-29.836c0-13.258-8.9961-24.625-21.785-28.414z"/>
  <path d="m480.19 505.76-26.047-35.992c-2.8398-3.7891-7.5781-4.2617-11.367-1.8945-3.7891 2.8398-4.2617 7.5781-1.8945 11.367l26.047 35.992c-8.0508 10.418-8.9961 25.102-0.94531 35.992 9.4727 13.262 28.414 16.102 41.676 6.6289 13.262-9.4727 16.102-28.414 6.6289-41.676-7.5742-10.891-21.781-14.68-34.098-10.418z"/>
  <path d="m570.64 407.73c-12.785-4.2617-26.52 0.94531-34.098 11.84l-42.148-13.734c-4.2617-1.4219-8.9961 0.94531-10.418 5.2109-1.4219 4.2617 0.94531 8.9961 5.2109 10.418l42.148 13.734c-0.47266 12.785 7.5781 25.574 20.363 29.363 15.629 5.2109 32.676-3.3164 37.414-19.418 6.1523-15.156-2.8477-32.203-18.473-37.414z"/>
  <path d="m262.34 421.46c4.2617-1.4219 6.6289-6.1562 5.2109-10.418-1.4219-4.2617-6.1562-6.6289-10.418-5.2109l-42.152 13.734c-7.1055-10.891-20.836-16.102-34.098-11.84-15.629 5.2109-24.152 21.785-18.941 37.414 5.2109 15.629 21.785 24.152 37.414 19.418 12.785-4.2617 20.836-16.574 20.363-29.363z"/>
  <path d="m297.39 470.24-25.574 35.52c-12.312-4.7344-26.52-0.94531-34.57 10.418-9.4727 13.262-6.6289 32.203 6.6289 41.676 13.262 9.4727 32.203 6.6289 41.676-6.6289 8.0508-10.891 7.1055-25.574-0.94531-35.992l26.047-35.992c2.8398-3.7891 1.8945-8.5234-1.8945-11.367-3.3164-2.3672-8.5273-1.418-11.367 2.3672z"/>
  <path d="m489.66 330.54c-4.2617 1.4219-6.6289 6.1562-5.2109 10.418 0.94531 3.3164 4.2617 5.6836 7.5781 5.6836 0.94531 0 1.8945 0 2.3672-0.47266l42.148-13.734c7.1055 10.891 20.836 16.102 34.098 11.84 15.629-5.2109 24.152-21.785 18.941-37.414-5.2109-15.629-21.785-24.152-37.414-19.418-12.785 4.2617-20.836 16.574-20.363 29.363z"/>
  <path d="m447.98 285.07c2.3672 0 4.7344-0.94531 6.6289-3.3164l26.047-35.992c12.312 4.7344 26.52 0.94531 34.57-10.418 9.4727-13.262 6.6289-32.203-6.6289-41.676-13.262-9.4727-32.203-6.6289-41.676 6.6289-8.0508 10.891-7.1055 25.574 0.94531 35.992l-26.047 35.992c-2.8398 3.7891-1.8945 8.5234 1.8945 11.367 0.95312 0.94922 2.3711 1.4219 4.2656 1.4219z"/>
 </g>
</svg>
