<?xml version="1.0" encoding="UTF-8"?>
<svg width="752pt" height="752pt" version="1.1" viewBox="0 0 752 752" xmlns="http://www.w3.org/2000/svg">
 <g>
  <path d="m526.6 524.71v-34.098c0-12.785-6.1562-25.102-16.574-32.676-35.52-25.574-77.195-39.781-120.29-42.621l-0.003906-56.832c0-7.5781-6.1562-13.734-13.734-13.734s-13.734 6.1562-13.734 13.734v57.305c-43.57 2.3672-84.77 17.051-120.29 42.621-10.418 7.5781-16.574 19.418-16.574 32.676v34.098c-15.156 5.6836-25.574 19.891-25.574 36.938 0 21.785 17.523 39.309 39.309 39.309 21.785 0 39.309-17.523 39.309-39.309 0-17.051-10.891-31.258-25.574-36.938v-34.098c0-4.2617 1.8945-8.0508 5.2109-10.418 30.781-22.258 66.773-35.047 104.66-37.414v81.93c-15.156 5.6836-25.574 19.891-25.574 36.938 0 21.785 17.523 39.309 39.309 39.309 21.785 0 39.309-17.523 39.309-39.309 0-17.051-10.891-31.258-25.574-36.938l-0.003907-81.93c37.887 2.3672 73.406 15.156 104.66 37.414 3.3164 2.3672 5.2109 6.1562 5.2109 10.418v34.098c-15.156 5.6836-25.574 19.891-25.574 36.938 0 21.785 17.523 39.309 39.309 39.309s39.309-17.523 39.309-39.309c-0.94922-17.52-11.367-31.727-26.52-37.41z"/>
  <path d="m315.38 266.61c3.7891 3.3164 5.6836 8.9961 4.7344 13.734l-10.418 43.566c-2.8398 12.312 10.418 21.785 20.836 15.156l37.887-23.207c4.2617-2.8398 9.9453-2.8398 14.68 0l37.887 23.207c10.418 6.6289 23.68-3.3164 20.836-15.156l-10.418-43.57c-1.4219-5.2109 0.47266-10.418 4.7344-13.734l33.625-28.887c9.4727-8.0508 4.2617-23.68-8.0508-24.625l-44.516-3.7891c-5.2109-0.47266-9.9453-3.7891-11.84-8.5234l-17.051-41.203c-4.7344-11.367-21.312-11.367-26.047 0l-16.57 41.203c-1.8945 4.7344-6.6289 8.0508-11.84 8.5234l-44.516 3.7891c-12.312 0.94531-17.523 16.574-8.0508 24.625z"/>
 </g>
</svg>
